<svg width="283" height="68" viewBox="0 0 283 68" fill="none" xmlns="http://www.w3.org/2000/svg">
<path d="M17.488 4.52799C18.64 4.52799 19.5786 4.89066 20.304 5.61599C21.0293 6.29866 21.392 7.19466 21.392 8.30399C21.392 9.41332 21.0293 10.3307 20.304 11.056C19.5786 11.7387 18.64 12.08 17.488 12.08C16.336 12.08 15.3973 11.7387 14.672 11.056C13.9466 10.3307 13.584 9.41332 13.584 8.30399C13.584 7.19466 13.9466 6.29866 14.672 5.61599C15.3973 4.89066 16.336 4.52799 17.488 4.52799ZM22.48 48.624C22.48 54.0427 20.6666 58.2453 17.04 61.232C13.456 64.2613 8.12265 66.3733 1.03998 67.568L0.143982 63.408C5.56265 62.512 9.74398 60.9333 12.688 58.672C15.632 56.4533 17.104 53.2107 17.104 48.944V24.56H3.08798V20.272H22.48V48.624Z" fill="#4B0A70"/>
<path d="M56.183 54L51.767 29.296L47.031 54H39.607L33.527 20.272H38.967L43.319 50.672L48.695 24.56H55.031L60.087 50.672L64.439 20.272H69.623L63.799 54H56.183Z" fill="#4B0A70"/>
<path d="M99.934 19.568C101.299 19.568 102.878 19.8027 104.67 20.272L103.902 31.728H99.55V24.496H99.23C94.0246 24.496 90.334 28.208 88.158 35.632V49.84H95.006V54H77.47V49.84H82.782V24.432H77.47V20.272H86.814L87.838 28.272C89.2033 25.3707 90.8246 23.1947 92.702 21.744C94.622 20.2933 97.0326 19.568 99.934 19.568Z" fill="#4B0A70"/>
<path d="M141.125 6.70399V54H136.389L135.877 49.584C134.64 51.2907 133.21 52.5707 131.589 53.424C129.968 54.2773 128.218 54.704 126.341 54.704C122.074 54.704 118.853 53.1467 116.677 50.032C114.544 46.9173 113.477 42.6293 113.477 37.168C113.477 33.7973 114.01 30.7893 115.077 28.144C116.144 25.456 117.658 23.3653 119.621 21.872C121.626 20.336 123.973 19.568 126.661 19.568C130.373 19.568 133.402 20.912 135.749 23.6V6.06399L141.125 6.70399ZM128.069 23.92C125.253 23.92 123.077 25.0293 121.541 27.248C120.048 29.4667 119.301 32.7733 119.301 37.168C119.301 41.52 119.984 44.8267 121.349 47.088C122.757 49.3067 124.784 50.416 127.429 50.416C130.629 50.416 133.402 48.624 135.749 45.04V28.272C134.81 26.864 133.68 25.7973 132.357 25.072C131.034 24.304 129.605 23.92 128.069 23.92Z" fill="#4B0A70"/>
<path d="M171.308 54L166.892 29.296L162.156 54H154.732L148.652 20.272H154.092L158.444 50.672L163.82 24.56H170.156L175.212 50.672L179.564 20.272H184.748L178.924 54H171.308Z" fill="#4B0A70"/>
<path d="M192.275 20.272H196.883L197.331 25.008C198.654 23.3013 200.318 21.9787 202.323 21.04C204.371 20.0587 206.419 19.568 208.467 19.568C214.782 19.568 217.939 22.896 217.939 29.552V54H212.563V33.52C212.563 31.0027 212.414 29.0827 212.115 27.76C211.859 26.4373 211.326 25.456 210.515 24.816C209.704 24.176 208.467 23.856 206.803 23.856C204.968 23.856 203.24 24.4107 201.619 25.52C199.998 26.6293 198.675 27.952 197.651 29.488V54H192.275V20.272Z" fill="#4B0A70"/>
<path d="M232.762 0.23999C238.223 0.23999 242.149 0.986656 244.538 2.47999C246.97 3.97332 248.186 6.46932 248.186 9.96799C248.186 10.3947 248.143 11.0773 248.058 12.016L247.098 21.232L247.034 22.064C247.034 25.6907 249.999 27.504 255.93 27.504V35.696C249.999 35.696 247.034 37.5093 247.034 41.136L247.098 41.968L248.058 51.12C248.143 52.144 248.186 52.8693 248.186 53.296C248.186 56.7947 246.97 59.2693 244.538 60.72C242.106 62.2133 238.181 62.96 232.762 62.96V55.92C234.895 55.92 236.453 55.6213 237.434 55.024C238.458 54.4693 238.885 53.424 238.714 51.888L237.754 42.416C237.711 42.032 237.69 41.4987 237.69 40.816C237.69 38 238.543 35.888 240.25 34.48C241.999 33.0293 244.495 32.0693 247.738 31.6C244.367 31.088 241.85 30.1493 240.186 28.784C238.522 27.4187 237.69 25.328 237.69 22.512C237.69 21.744 237.711 21.168 237.754 20.784L238.714 11.312C238.885 9.81866 238.458 8.77332 237.434 8.17599C236.41 7.57866 234.853 7.27999 232.762 7.27999V0.23999Z" fill="#4B0A70"/>
<path d="M275.425 19.504C277.302 19.504 278.881 20.1653 280.161 21.488C281.441 22.8107 282.081 24.3893 282.081 26.224C282.081 28.0587 281.441 29.6373 280.161 30.96C278.881 32.24 277.302 32.88 275.425 32.88C273.548 32.88 271.948 32.24 270.625 30.96C269.345 29.6373 268.705 28.0587 268.705 26.224C268.705 24.3893 269.345 22.8107 270.625 21.488C271.948 20.1653 273.548 19.504 275.425 19.504ZM275.425 41.392C277.345 41.392 278.924 42.032 280.161 43.312C281.441 44.592 282.081 46.1707 282.081 48.048C282.081 49.1573 281.889 50.3093 281.505 51.504C281.121 52.6987 280.438 54.384 279.457 56.56L275.041 66.672H268.449L271.585 53.552C270.689 52.9547 269.985 52.1653 269.473 51.184C268.961 50.2027 268.705 49.136 268.705 47.984C268.705 46.1067 269.345 44.5493 270.625 43.312C271.905 42.032 273.505 41.392 275.425 41.392Z" fill="#4B0A70"/>
</svg>
