<svg width="76" height="64" viewBox="0 0 76 64" fill="none" xmlns="http://www.w3.org/2000/svg">
<path d="M16.92 3.18C18.24 3.18 19.3 3.58 20.1 4.38C20.9 5.18 21.3 6.2 21.3 7.44C21.3 8.64 20.9 9.64 20.1 10.44C19.3 11.24 18.24 11.64 16.92 11.64C15.64 11.64 14.58 11.24 13.74 10.44C12.94 9.64 12.54 8.64 12.54 7.44C12.54 6.24 12.94 5.24 13.74 4.44C14.58 3.6 15.64 3.18 16.92 3.18ZM22.14 43.74C22.14 49.46 20.4 53.84 16.92 56.88C13.44 59.92 8.16 62.08 1.08 63.36L0 58.2C5.12 57.24 8.96 55.7 11.52 53.58C14.12 51.46 15.42 48.32 15.42 44.16V23.64H2.94V18.72H22.14V43.74Z" fill="#EFEFEF"/>
<path d="M30.9966 0C36.1166 0 39.7966 0.699999 42.0366 2.1C44.3166 3.5 45.4566 5.84 45.4566 9.12C45.4566 9.52 45.4166 10.16 45.3366 11.04L44.4366 19.68L44.3766 20.46C44.3766 23.86 47.1566 25.56 52.7166 25.56V33.24C47.1566 33.24 44.3766 34.94 44.3766 38.34L44.4366 39.12L45.3366 47.7C45.4166 48.66 45.4566 49.34 45.4566 49.74C45.4566 53.02 44.3166 55.34 42.0366 56.7C39.7566 58.1 36.0766 58.8 30.9966 58.8V52.2C32.9966 52.2 34.4566 51.92 35.3766 51.36C36.3366 50.84 36.7366 49.86 36.5766 48.42L35.6766 39.54C35.6366 39.18 35.6166 38.68 35.6166 38.04C35.6166 35.4 36.4166 33.42 38.0166 32.1C39.6566 30.74 41.9966 29.84 45.0366 29.4C41.8766 28.92 39.5166 28.04 37.9566 26.76C36.3966 25.48 35.6166 23.52 35.6166 20.88C35.6166 20.16 35.6366 19.62 35.6766 19.26L36.5766 10.38C36.7366 8.98 36.3366 8 35.3766 7.44C34.4166 6.88 32.9566 6.6 30.9966 6.6V0Z" fill="#EFEFEF"/>
<path d="M69.1931 18.06C70.9531 18.06 72.4331 18.68 73.6331 19.92C74.8331 21.16 75.4331 22.64 75.4331 24.36C75.4331 26.08 74.8331 27.56 73.6331 28.8C72.4331 30 70.9531 30.6 69.1931 30.6C67.4331 30.6 65.9331 30 64.6931 28.8C63.4931 27.56 62.8931 26.08 62.8931 24.36C62.8931 22.64 63.4931 21.16 64.6931 19.92C65.9331 18.68 67.4331 18.06 69.1931 18.06ZM69.1931 38.58C70.9931 38.58 72.4731 39.18 73.6331 40.38C74.8331 41.58 75.4331 43.06 75.4331 44.82C75.4331 45.86 75.2531 46.94 74.8931 48.06C74.5331 49.18 73.8931 50.76 72.9731 52.8L68.8331 62.28H62.6531L65.5931 49.98C64.7531 49.42 64.0931 48.68 63.6131 47.76C63.1331 46.84 62.8931 45.84 62.8931 44.76C62.8931 43 63.4931 41.54 64.6931 40.38C65.8931 39.18 67.3931 38.58 69.1931 38.58Z" fill="#EFEFEF"/>
</svg>
