<svg width="100" height="100" viewBox="0 0 100 100" fill="none" xmlns="http://www.w3.org/2000/svg">
<rect width="100" height="100" fill="#EFEFEF"/>
<path d="M28.92 21.18C30.24 21.18 31.3 21.58 32.1 22.38C32.9 23.18 33.3 24.2 33.3 25.44C33.3 26.64 32.9 27.64 32.1 28.44C31.3 29.24 30.24 29.64 28.92 29.64C27.64 29.64 26.58 29.24 25.74 28.44C24.94 27.64 24.54 26.64 24.54 25.44C24.54 24.24 24.94 23.24 25.74 22.44C26.58 21.6 27.64 21.18 28.92 21.18ZM34.14 61.74C34.14 67.46 32.4 71.84 28.92 74.88C25.44 77.92 20.16 80.08 13.08 81.36L12 76.2C17.12 75.24 20.96 73.7 23.52 71.58C26.12 69.46 27.42 66.32 27.42 62.16V41.64H14.94V36.72H34.14V61.74Z" fill="#4B0A70"/>
<path d="M42.9966 18C48.1166 18 51.7966 18.7 54.0366 20.1C56.3166 21.5 57.4566 23.84 57.4566 27.12C57.4566 27.52 57.4166 28.16 57.3366 29.04L56.4366 37.68L56.3766 38.46C56.3766 41.86 59.1566 43.56 64.7166 43.56V51.24C59.1566 51.24 56.3766 52.94 56.3766 56.34L56.4366 57.12L57.3366 65.7C57.4166 66.66 57.4566 67.34 57.4566 67.74C57.4566 71.02 56.3166 73.34 54.0366 74.7C51.7566 76.1 48.0766 76.8 42.9966 76.8V70.2C44.9966 70.2 46.4566 69.92 47.3766 69.36C48.3366 68.84 48.7366 67.86 48.5766 66.42L47.6766 57.54C47.6366 57.18 47.6166 56.68 47.6166 56.04C47.6166 53.4 48.4166 51.42 50.0166 50.1C51.6566 48.74 53.9966 47.84 57.0366 47.4C53.8766 46.92 51.5166 46.04 49.9566 44.76C48.3966 43.48 47.6166 41.52 47.6166 38.88C47.6166 38.16 47.6366 37.62 47.6766 37.26L48.5766 28.38C48.7366 26.98 48.3366 26 47.3766 25.44C46.4166 24.88 44.9566 24.6 42.9966 24.6V18Z" fill="#4B0A70"/>
<path d="M81.1931 36.06C82.9531 36.06 84.4331 36.68 85.6331 37.92C86.8331 39.16 87.4331 40.64 87.4331 42.36C87.4331 44.08 86.8331 45.56 85.6331 46.8C84.4331 48 82.9531 48.6 81.1931 48.6C79.4331 48.6 77.9331 48 76.6931 46.8C75.4931 45.56 74.8931 44.08 74.8931 42.36C74.8931 40.64 75.4931 39.16 76.6931 37.92C77.9331 36.68 79.4331 36.06 81.1931 36.06ZM81.1931 56.58C82.9931 56.58 84.4731 57.18 85.6331 58.38C86.8331 59.58 87.4331 61.06 87.4331 62.82C87.4331 63.86 87.2531 64.94 86.8931 66.06C86.5331 67.18 85.8931 68.76 84.9731 70.8L80.8331 80.28H74.6531L77.5931 67.98C76.7531 67.42 76.0931 66.68 75.6131 65.76C75.1331 64.84 74.8931 63.84 74.8931 62.76C74.8931 61 75.4931 59.54 76.6931 58.38C77.8931 57.18 79.3931 56.58 81.1931 56.58Z" fill="#4B0A70"/>
</svg>
