<svg width="49" height="41" viewBox="0 0 49 41" fill="none" xmlns="http://www.w3.org/2000/svg">
<path d="M21.5377 0C24.8508 0 27.2321 0.452967 28.6816 1.3589C30.157 2.26484 30.8947 3.77904 30.8947 5.90152C30.8947 6.16035 30.8688 6.57449 30.817 7.14394L30.2346 12.7348L30.1958 13.2396C30.1958 15.4397 31.9947 16.5398 35.5926 16.5398V21.5095C31.9947 21.5095 30.1958 22.6095 30.1958 24.8097L30.2346 25.3144L30.817 30.8665C30.8688 31.4877 30.8947 31.9277 30.8947 32.1866C30.8947 34.309 30.157 35.8103 28.6816 36.6903C27.2062 37.5963 24.8249 38.0492 21.5377 38.0492V33.7784C22.8319 33.7784 23.7766 33.5972 24.372 33.2348C24.9932 32.8984 25.252 32.2642 25.1485 31.3324L24.5661 25.5862C24.5402 25.3532 24.5273 25.0297 24.5273 24.6155C24.5273 22.9072 25.0449 21.6259 26.0803 20.7718C27.1415 19.8917 28.6557 19.3093 30.6229 19.0246C28.5781 18.714 27.0509 18.1446 26.0415 17.3163C25.032 16.488 24.5273 15.2197 24.5273 13.5114C24.5273 13.0455 24.5402 12.696 24.5661 12.4631L25.1485 6.71685C25.252 5.81092 24.9932 5.17677 24.372 4.81439C23.7507 4.45202 22.806 4.27083 21.5377 4.27083V0Z" fill="white"/>
<path d="M44.8956 11.6866C46.0345 11.6866 46.9922 12.0878 47.7687 12.8902C48.5452 13.6925 48.9335 14.6503 48.9335 15.7633C48.9335 16.8763 48.5452 17.834 47.7687 18.6364C46.9922 19.4129 46.0345 19.8011 44.8956 19.8011C43.7567 19.8011 42.7861 19.4129 41.9837 18.6364C41.2072 17.834 40.8189 16.8763 40.8189 15.7633C40.8189 14.6503 41.2072 13.6925 41.9837 12.8902C42.7861 12.0878 43.7567 11.6866 44.8956 11.6866ZM44.8956 24.965C46.0604 24.965 47.0181 25.3532 47.7687 26.1297C48.5452 26.9062 48.9335 27.864 48.9335 29.0028C48.9335 29.6758 48.817 30.3747 48.5841 31.0994C48.3511 31.8242 47.937 32.8466 47.3416 34.1667L44.6627 40.3011H40.6636L42.5661 32.3419C42.0225 31.9795 41.5954 31.5006 41.2848 30.9053C40.9742 30.31 40.8189 29.6629 40.8189 28.964C40.8189 27.8251 41.2072 26.8804 41.9837 26.1297C42.7602 25.3532 43.7308 24.965 44.8956 24.965Z" fill="white"/>
<path d="M11.2489 2.05776C12.103 2.05776 12.7889 2.3166 13.3066 2.83428C13.8243 3.35196 14.0831 4.01199 14.0831 4.81439C14.0831 5.59091 13.8243 6.238 13.3066 6.75568C12.7889 7.27336 12.103 7.5322 11.2489 7.5322C10.4206 7.5322 9.73465 7.27336 9.19109 6.75568C8.67341 6.238 8.41457 5.59091 8.41457 4.81439C8.41457 4.03788 8.67341 3.39078 9.19109 2.87311C9.73465 2.32954 10.4206 2.05776 11.2489 2.05776ZM14.6267 28.304C14.6267 32.0054 13.5007 34.8396 11.2489 36.8068C8.99696 38.774 5.58029 40.1717 0.998851 41L0.299988 37.661C3.61312 37.0398 6.09797 36.0432 7.75453 34.6714C9.43698 33.2996 10.2782 31.2677 10.2782 28.5758V15.2973H2.20245V12.1136H14.6267V28.304Z" fill="white"/>
</svg>
